<?xml version="1.0" encoding="utf-8"?>
<!-- Generator: Adobe Illustrator 19.0.0, SVG Export Plug-In . SVG Version: 6.00 Build 0)  -->
<svg version="1.1" id="Capa_1" xmlns="http://www.w3.org/2000/svg" xmlns:xlink="http://www.w3.org/1999/xlink" x="0px" y="0px"
	 viewBox="-127 129 342.3 256" style="enable-background:new -127 129 342.3 256;" xml:space="preserve">
<g>
	<path d="M127.2,215.6l-13.2-8.8l3.5-7.6c4.2-9.2,1-20.1-7.5-25.6l-11-7.2v-15.9c0-1.6-0.9-3.2-2.4-3.8c-1.9-0.8-4-0.1-5,1.5
		l-6.5,10.4l-3.9-0.2c-12.8-0.6-25.1,4.5-33.8,13.8l-25.7,27.5c-6,6.4-14.8,8.6-22.8,6.2c3.5-4.1,7.6-10.8,6.4-18.2
		c-1.4-8.4-9-15.2-22.7-20.2c-22.4-8.2-44.7-2.7-59.4,3.4c-18.7,7.7-32.1,18.9-37,26.6c-2.8,4.4-3.7,9.2-2.6,14
		c1.8,7.7,8.3,13.8,12.7,17.2c-3.3,3.8-8.6,10.4-13.5,19.5c-10.5,19.5-12.9,48-5.5,67.7c3.7,9.9,9.6,16.9,17.3,20.4l10.4,23.8
		c2,4.7,6.7,7.7,11.8,7.7h11.5c1.8,0,3.5-0.5,4.9-1.5c2.9-2.1,4-5.9,2.9-9.1l-1.3-3.6c-1.3-3.9-4.2-6.8-7.9-8.3l3.2-10
		c0.8-0.2,1.5-0.5,2.3-0.7c13.4-4,27.2-8.1,43-1.4c13.9,5.9,29.8,7.6,43.5,7.7l15.5,21.7c2.4,3.3,6.2,5.3,10.2,5.3h14.2
		c1.7,0,3.4-0.5,4.8-1.5c2.8-2.1,3.8-5.7,2.7-8.9c-2.4-6.6-8.1-11.3-15-12.4l-1.7-0.3l-0.1-6.5c0.6-0.1,1.4-0.3,2.2-0.5
		c2.5-0.6,4.9-1.4,7.3-2.4c18.2-7.6,33.2-21.4,42.3-39.1c8.9-17.3,11.5-37.1,7.5-56c6.6-1.5,12.4-5.8,15.7-11.9l4.1-7.5
		C129.5,219,128.9,216.7,127.2,215.6z M90.9,164.3v3.2l-16.9,32.9c-0.7-4.7,0.3-9.6,2.8-13.7L90.9,164.3z M-108.6,209.6
		c-0.6-2.7-0.2-5.3,1.5-7.8c5.6-8.8,21-18.5,33.3-23.5c13.5-5.5,33.7-10.6,53.6-3.3c10.6,3.9,16.6,8.7,17.5,13.9
		c0.9,5.1-3.2,10.5-6.1,13.5c-5.6-1.9-18.5-2.6-39.4,15.7c-12.5,10.9-24,16-33.4,14.9c-3.6-0.5-6.4-1.8-8.4-3.1
		c-2.8-1.8-11.1-9-14.2-12.5C-106.2,215-107.9,212.4-108.6,209.6z M-81.5,350.6c0.8,1,2,1.6,3.2,1.6c2.5,0,4.6,1.6,5.4,3.9l1.3,3.6
		h-11.7c-1.9,0-3.6-1.1-4.4-2.9l-7.9-17.9c5.5,0.6,11-0.1,16.3-1.3l-3,9.3C-82.5,348.2-82.3,349.5-81.5,350.6z M41.6,348.2
		c0,2,1.5,3.6,3.4,3.9l5.1,0.8c3.9,0.6,7.1,3.2,8.5,6.8h-14c-1.5,0-2.8-0.7-3.7-1.9l-12.3-17.3c4.8-0.3,9.2-0.7,12.9-1.1L41.6,348.2
		z M117.3,224.5c-2.7,5-7.9,8.2-13.6,8.3L93.1,233c-5.7,0.1-10.7,3.7-12.6,9.1c-0.7,2,0.1,4.2,2,5.1c0.6,0.3,1.2,0.4,1.7,0.4
		c1.7,0,3.3-1.1,3.8-2.8c0.7-2.3,2.9-3.7,5.3-3.8l7.3-0.1c4,17.5,1.7,35.7-6.6,51.7c-8.7,16.9-23.3,29.9-41.2,36.5l0,0
		c-1.4,0.5-2.8,0.9-4.3,1.1c-9.6,1.6-44.3,6.4-70.1-4.5c-18.5-7.8-34.4-3.1-48.4,1.1c-11.4,3.4-21.3,6.3-31.1,2.6
		c-7.8-2.9-12-10.5-14.2-16.3c-6.5-17.5-4.4-43.7,5-61.1c4.5-8.4,9.5-14.6,12.5-18c2.9,2.7,7.8,6,14.8,6.9c1.3,0.2,2.7,0.3,4,0.3
		c10.9,0,22.9-5.7,35.9-17c22.4-19.6,32.5-13.7,32.6-13.6c-0.1,0-0.1-0.1-0.1-0.1l0,0c0.1,0.1,0.2,0.2,0.3,0.2
		c12.4,7.3,27.9,5,37.6-5.5l25.7-27.5c7-7.5,16.7-11.5,26.9-11.3l-10.1,16.1c-5.7,9.1-5.7,20.7-0.1,29.8c0.6,1,1.6,1.8,2.8,2
		c1.8,0.3,3.5-0.6,4.3-2.1l19.4-37.9l9.1,5.9c5.2,3.4,7.1,10,4.5,15.6l-4.9,10.7c-0.8,1.8-0.2,3.9,1.4,5l13,8.7L117.3,224.5z"/>
	<path d="M96.7,208l-7,1.6c-2.2,0.5-3.5,2.7-3,4.8c0.4,1.9,2.1,3.1,3.9,3.1c0.3,0,0.6,0,0.9-0.1l7-1.6c2.2-0.5,3.5-2.7,3-4.8
		C101,208.9,98.9,207.5,96.7,208z"/>
</g>
<path d="M157,220.2c-3.4-1.7-6.4,3.4-3,5.1c5.9,3,8,12,0.7,14.8c-3.3,1.3-2,6.5,1.5,5.4C168.5,241.6,167.8,225.5,157,220.2z"/>
<path d="M173.9,209c-2.9-2.6-7.3,1.7-4.3,4.3c13.2,11.4,8.2,31.3-3.2,41.9c-1.8,1.7,0.5,4.5,2.6,3.3
	C185.9,248.9,188.5,221.7,173.9,209z"/>
<path d="M181,194.7c-2.7-0.2-3.3,3.5-1.3,4.8c12.2,7.6,18,15.9,18.9,30.7c0.8,13.9-4.6,28.5-17.2,35.3c-2.3,1.2-0.7,5.2,1.8,4.3
	c16-6,21.8-23.9,21.7-39.6C204.8,216.3,197.1,196,181,194.7z"/>
</svg>
