<?xml version="1.0" encoding="utf-8"?>
<!-- Generator: Adobe Illustrator 19.0.0, SVG Export Plug-In . SVG Version: 6.00 Build 0)  -->
<svg version="1.1" id="Слой_1" xmlns="http://www.w3.org/2000/svg" xmlns:xlink="http://www.w3.org/1999/xlink" x="0px" y="0px"
	 viewBox="0 0 600 166" style="enable-background:new 0 0 600 166;" xml:space="preserve">
<style type="text/css">
	.st0{fill:#FFFFFF;}
</style>
<path id="XMLID_59_" d="M291.6,5.1C137,9.2-10.6,113.3,1.8,166c598.6,0,598.6,0,598.6,0C612.6,112.4,457.7,0.8,291.6,5.1z
	 M230.5,15.3c6.4,0,6.4,10,0,10C224.1,25.3,224.1,15.3,230.5,15.3z M29.1,158.7c-6.4,0-6.4-10,0-10
	C35.5,148.7,35.5,158.7,29.1,158.7z M43.6,132.6c-6.4,0-6.4-10,0-10C50,122.6,50,132.6,43.6,132.6z M68.2,106.6c6.4,0,6.4,10,0,10
	C61.8,116.6,61.8,106.6,68.2,106.6z M71.1,150c-6.4,0-6.4-10,0-10C77.6,140,77.6,150,71.1,150z M94.3,128.2c-6.4,0-6.4-10,0-10
	C100.7,118.2,100.7,128.2,94.3,128.2z M120.4,84.9c6.4,0,6.4,10,0,10C113.9,94.9,114,84.9,120.4,84.9z M121.8,122.6
	c6.4,0,6.4,10,0,10C115.4,132.6,115.4,122.6,121.8,122.6z M124.7,163c-6.4,0-6.4-10,0-10C131.2,153,131.2,163,124.7,163z
	 M149.4,50.1c6.4,0,6.4,10,0,10C142.9,60.1,142.9,50.1,149.4,50.1z M150.8,109.4c-6.4,0-6.4-10,0-10
	C157.3,99.4,157.3,109.4,150.8,109.4z M169.7,141.3c-6.4,0-6.4-10,0-10C176.1,131.3,176.1,141.3,169.7,141.3z M188.5,79
	c-6.4,0-6.4-10,0-10C195,69,194.9,79,188.5,79z M198.7,158.7c-6.4,0-6.4-10,0-10C205.1,148.7,205.1,158.7,198.7,158.7z M204.4,121
	c-6.4,0-6.4-10,0-10C210.9,111,210.9,121,204.4,121z M210.2,45.6c-6.4,0-6.4-10,0-10C216.7,35.6,216.7,45.6,210.2,45.6z M229.1,74.8
	c6.4,0,6.4,10,0,10C222.6,84.8,222.7,74.8,229.1,74.8z M234.9,145.6c-6.4,0-6.4-10,0-10C241.3,135.6,241.3,145.6,234.9,145.6z
	 M255.2,54.3c-6.4,0-6.4-10,0-10C261.6,44.3,261.6,54.3,255.2,54.3z M272.6,115.2c-6.4,0-6.4-10,0-10
	C279,105.2,279,115.2,272.6,115.2z M282.7,31.1c-6.4,0-6.4-10,0-10C289.2,21.1,289.1,31.1,282.7,31.1z M294.3,145.6
	c-6.4,0-6.4-10,0-10C300.7,135.6,300.7,145.6,294.3,145.6z M295.8,67.4c-6.4,0-6.4-10,0-10C302.2,57.4,302.2,67.4,295.8,67.4z
	 M318.9,31.1c-6.4,0-6.4-10,0-10C325.4,21.1,325.4,31.1,318.9,31.1z M334.9,97.9c6.4,0,6.4,10,0,10
	C328.4,107.9,328.4,97.9,334.9,97.9z M337.8,158.7c-6.4,0-6.4-10,0-10C344.2,148.7,344.2,158.7,337.8,158.7z M356.6,58.7
	c-6.4,0-6.4-10,0-10C363.1,48.7,363.1,58.7,356.6,58.7z M366.8,138.4c-6.4,0-6.4-10,0-10C373.2,128.4,373.2,138.4,366.8,138.4z
	 M369.7,100.7c-6.4,0-6.4-10,0-10C376.1,90.7,376.1,100.7,369.7,100.7z M376.9,39.8c-6.4,0-6.4-10,0-10
	C383.4,29.8,383.3,39.8,376.9,39.8z M397.2,55.9c6.4,0,6.4,10,0,10C390.8,65.9,390.8,55.9,397.2,55.9z M403,90.7c6.4,0,6.4,10,0,10
	C396.6,100.7,396.6,90.7,403,90.7z M404.4,155.8c-6.4,0-6.4-10,0-10C410.9,145.8,410.9,155.8,404.4,155.8z M432,110.8
	c-6.4,0-6.4-10,0-10C438.4,100.8,438.4,110.8,432,110.8z M437.8,57.2c-6.4,0-6.4-10,0-10C444.2,47.2,444.2,57.2,437.8,57.2z
	 M449.4,145.6c-6.4,0-6.4-10,0-10C455.8,135.6,455.8,145.6,449.4,145.6z M463.9,115.2c-6.4,0-6.4-10,0-10
	C470.3,105.2,470.3,115.2,463.9,115.2z M469.7,80.4c-6.4,0-6.4-10,0-10C476.1,70.4,476.1,80.4,469.7,80.4z M487.1,150
	c-6.4,0-6.4-10,0-10C493.5,140,493.5,150,487.1,150z M503,93.4c-6.4,0-6.4-10,0-10C509.4,83.4,509.4,93.4,503,93.4z M521.8,134
	c-6.4,0-6.4-10,0-10C528.3,124,528.3,134,521.8,134z M539.2,161.6c-6.4,0-6.4-10,0-10C545.7,151.6,545.7,161.6,539.2,161.6z
	 M540.7,110.8c-6.4,0-6.4-10,0-10C547.1,100.8,547.1,110.8,540.7,110.8z M569.7,148.5c-6.4,0-6.4-10,0-10
	C576.1,138.5,576.1,148.5,569.7,148.5z"/>
<rect id="XMLID_7_" x="356.3" y="60.9" class="st0" width="0" height="0"/>
</svg>
