<?xml version="1.0" encoding="utf-8"?>
<!-- Generator: Adobe Illustrator 19.0.0, SVG Export Plug-In . SVG Version: 6.00 Build 0)  -->
<svg version="1.1" id="Слой_1" xmlns="http://www.w3.org/2000/svg" xmlns:xlink="http://www.w3.org/1999/xlink" x="0px" y="0px"
	 viewBox="0 0 226.7 318.8" style="enable-background:new 0 0 226.7 318.8;" xml:space="preserve">
<style type="text/css">
	.st0{fill:#0D0F0F;}
</style>
<path id="XMLID_5_" class="st0" d="M112.9,104c6.9,0,12.5,5.5,12.6,12.4c0,3.3-1.3,6.5-3.6,8.9c-2.3,2.4-5.5,3.7-8.8,3.7
	c-6.9,0-12.5-5.5-12.6-12.4c0-3.3,1.3-6.5,3.6-8.9C106.4,105.4,109.6,104,112.9,104z M120.5,10.3c1.8,2.4,43.8,60.5,44.2,129.3
	c0.2,27.4-2.4,55.7-5.5,79.7l21.5,16.2c4.1-11.4,9.6-19.1,9.9-19.6c1.9-2.6,4.9-4.2,8.1-4.2c3.2,0,6.2,1.5,8.1,4.1
	c0.6,0.8,14.7,20.3,14.8,43.5c0.1,21.1-4.9,44-5.1,44.9c-0.4,1.9-1.4,3.6-2.7,4.9c-1.8,1.8-4.3,3-7.1,3l-15.1,0.1
	c-4.7,0-8.8-3.2-9.8-7.8c-0.2-1-5.5-23.7-5.6-44.8c0-0.7,0-1.5,0-2.2L155.9,242c-3.6,22.8-7,38.4-7.3,39.8c-0.4,1.9-1.4,3.6-2.7,4.9
	c-1.8,1.8-4.3,3-7.1,3l-4.7,0c-1.3,8.5-2.6,14.5-2.7,15c-0.4,1.9-1.4,3.6-2.7,4.9c-1.8,1.8-4.3,3-7.1,3l-15.1,0.1
	c-4.7,0-8.8-3.2-9.8-7.8c-0.1-0.5-1.5-6.5-2.9-15l-4.7,0c-4.7,0-8.8-3.2-9.8-7.8c-0.3-1.4-3.9-16.9-7.8-39.7l-20.2,15.6
	c0,0.7,0.1,1.5,0.1,2.2c0.1,21.1-4.9,43.9-5.1,44.9c-0.4,1.9-1.4,3.6-2.7,4.9c-1.8,1.8-4.3,3-7.1,3l-15.1,0.1
	c-4.7,0-8.8-3.2-9.8-7.8c-0.2-1-5.5-23.7-5.6-44.8c-0.1-23.2,13.7-42.9,14.3-43.7c1.9-2.6,4.9-4.2,8.1-4.2c3.2,0,6.2,1.5,8.1,4.1
	c0.4,0.5,5.9,8.2,10.2,19.5L68,219.9c-3.4-24.1-6.3-52.3-6.5-79.7c-0.4-68.9,41-127.4,42.7-129.8c1.9-2.6,4.9-4.2,8.1-4.2
	C115.5,6.2,118.6,7.7,120.5,10.3z M112.8,83.9c-8.7,0.1-16.9,3.5-23,9.7c-6.1,6.2-9.5,14.4-9.4,23.1c0.1,18,14.8,32.5,32.8,32.4
	c8.7-0.1,16.9-3.5,23-9.7c6.1-6.2,9.5-14.4,9.4-23.1C145.4,98.4,130.7,83.8,112.8,83.9z"/>
</svg>
